<?xml version="1.0" standalone="no"?><!DOCTYPE svg PUBLIC "-//W3C//DTD SVG 1.1//EN" "http://www.w3.org/Graphics/SVG/1.1/DTD/svg11.dtd"><svg t="1607944168286" class="icon" viewBox="0 0 1024 1024" version="1.1" xmlns="http://www.w3.org/2000/svg" p-id="5437" xmlns:xlink="http://www.w3.org/1999/xlink" width="1024" height="1024"><defs><style type="text/css"></style></defs><path d="M854.724689 69.235874 153.793712 69.235874c-51.543933 0-93.457532 41.913599-93.457532 93.455485l0 467.286636c0 51.543933 41.913599 93.457532 93.457532 93.457532l387.451356 0 203.50388 203.435319c4.562922 4.560876 10.540054 6.843872 16.518209 6.843872s11.958356-2.282996 16.518209-6.843872c9.128915-9.125845 9.128915-23.911596 0-33.037441L567.438637 683.552168c-4.378727-4.380774-10.31288-6.845918-16.518209-6.845918L153.793712 676.706249c-25.759687 0-46.728254-20.969591-46.728254-46.728254L107.065458 162.690336c0-25.756617 20.969591-46.726208 46.728254-46.726208l700.930977 0c25.758664 0 46.728254 20.969591 46.728254 46.726208l0 467.286636c0 25.759687-20.969591 46.728254-46.728254 46.728254l-93.228311 0c-12.916171 0-23.364127 10.453073-23.364127 23.364127 0 12.913101 10.44898 23.364127 23.364127 23.364127l93.228311 0c51.543933 0 93.459578-41.913599 93.459578-93.457532L948.184267 162.690336C948.184267 111.148449 906.268622 69.235874 854.724689 69.235874zM247.251244 396.333654c0 25.807782 20.920472 46.728254 46.728254 46.728254s46.728254-20.920472 46.728254-46.728254c0-25.805736-20.920472-46.728254-46.728254-46.728254S247.251244 370.527918 247.251244 396.333654zM457.530434 396.333654c0 25.807782 20.922519 46.728254 46.728254 46.728254 25.807782 0 46.728254-20.920472 46.728254-46.728254 0-25.805736-20.920472-46.728254-46.728254-46.728254C478.452953 349.6054 457.530434 370.527918 457.530434 396.333654zM761.267157 396.333654c0-25.805736-20.920472-46.728254-46.728254-46.728254s-46.728254 20.922519-46.728254 46.728254c0 25.807782 20.920472 46.728254 46.728254 46.728254S761.267157 422.142459 761.267157 396.333654z" p-id="5438" fill="#BB86FC"></path></svg>