<?xml version="1.0" standalone="no"?><!DOCTYPE svg PUBLIC "-//W3C//DTD SVG 1.1//EN" "http://www.w3.org/Graphics/SVG/1.1/DTD/svg11.dtd"><svg t="1607922748583" class="icon" viewBox="0 0 1024 1024" version="1.1" xmlns="http://www.w3.org/2000/svg" p-id="1173" xmlns:xlink="http://www.w3.org/1999/xlink" width="1024" height="1024"><defs><style type="text/css"></style></defs><path d="M995.84 279.04a60.330667 60.330667 0 0 0-58.88-3.413333l-130.56 64a42.666667 42.666667 0 1 0 37.546667 76.8L938.666667 370.346667v436.053333l-276.48 130.56-279.893334-139.093333a60.586667 60.586667 0 0 0-52.906666 0L85.333333 916.48V448l92.16-43.52c21.333333-10.24 30.72-35.84 20.48-57.173333a42.496 42.496 0 0 0-56.32-20.48l-106.666666 50.346666c-21.333333 10.24-34.986667 31.573333-34.986667 54.613334v523.946666c0 21.333333 10.24 40.106667 28.16 51.2 17.92 11.093333 39.253333 11.946667 58.88 3.413334l268.8-130.56 279.893333 137.386666c7.68 5.12 17.066667 6.826667 26.453334 6.826667 8.533333 0 17.92-1.706667 25.6-5.973333l301.226666-141.653334c21.333333-9.386667 34.986667-31.573333 34.986667-54.613333V330.24c0-20.48-10.24-40.106667-28.16-51.2z" fill="#BB86FC" p-id="1174"></path><path d="M512 692.053333c28.16 0 54.613333-14.506667 70.826667-38.4C667.306667 523.093333 768 348.16 768 256c0-140.8-115.2-256-256-256S256 115.2 256 256c0 92.16 100.693333 267.093333 185.173333 397.653333 16.213333 23.893333 42.666667 38.4 70.826667 38.4zM512 85.333333c93.866667 0 170.666667 76.8 170.666667 170.666667 0 52.906667-65.706667 187.733333-169.813334 351.573333C407.04 443.733333 341.333333 309.76 341.333333 256c0-93.866667 76.8-170.666667 170.666667-170.666667z" fill="#BB86FC" p-id="1175"></path></svg>