<?xml version="1.0" standalone="no"?><!DOCTYPE svg PUBLIC "-//W3C//DTD SVG 1.1//EN" "http://www.w3.org/Graphics/SVG/1.1/DTD/svg11.dtd"><svg t="1607947327701" class="icon" viewBox="0 0 1177 1024" version="1.1" xmlns="http://www.w3.org/2000/svg" p-id="1793" xmlns:xlink="http://www.w3.org/1999/xlink" width="1177" height="1024"><defs><style type="text/css"></style></defs><path d="M961.794393 1004.859813h-746.46729c-38.280374 0-71.775701-20.097196-90.915888-52.635514s-19.140187-71.775701 0-105.271028l373.233645-649.809346c19.140187-33.495327 53.592523-52.635514 90.915888-52.635514s72.73271 20.097196 90.915888 52.635514l373.233644 649.809346c19.140187 32.538318 19.140187 72.73271 0 105.271028-18.183178 32.538318-52.635514 52.635514-90.915887 52.635514z" fill="#000000" p-id="1794"></path><path d="M588.560748 163.648598c-15.31215 0-29.66729 3.828037-42.108412 10.527103-13.398131 7.656075-24.882243 18.183178-32.538317 32.538318l-373.233645 649.809345c-7.656075 14.35514-11.484112 28.71028-11.484112 44.02243 0 14.35514 4.785047 28.71028 11.484112 42.108412 7.656075 12.441121 18.183178 23.925234 30.624299 30.624299 13.398131 7.656075 27.753271 12.441121 44.02243 12.441121h747.424299c16.269159 0 30.624299-3.828037 44.02243-12.441121 12.441121-7.656075 22.968224-18.183178 30.624299-30.624299 7.656075-12.441121 11.484112-26.796262 11.484112-42.108412 0-15.31215-3.828037-30.624299-11.484112-44.02243l-373.233645-649.809345c-7.656075-14.35514-19.140187-24.882243-32.538318-32.538318-13.398131-6.699065-27.753271-10.527103-43.06542-10.527103m0-38.280374c42.108411 0 84.216822 21.054206 108.142056 62.205608l373.233645 649.809346c47.850467 83.259813-12.441121 186.616822-108.142056 186.616822h-746.46729c-95.700935 0-155.992523-103.357009-108.142056-186.616822l373.233645-649.809346c23.925234-41.151402 66.033645-62.205607 108.142056-62.205608z" fill="#000000" p-id="1795"></path><path d="M593.345794 363.663551c16.269159 0 28.71028 12.441121 28.710281 28.710281v325.383177c0 16.269159-12.441121 28.71028-28.710281 28.710281s-28.71028-12.441121-28.71028-28.710281V392.373832c0-16.269159 12.441121-28.71028 28.71028-28.710281z" fill="#000000" p-id="1796"></path><path d="M593.345794 842.168224m-38.280373 0a38.280374 38.280374 0 1 0 76.560747 0 38.280374 38.280374 0 1 0-76.560747 0Z" fill="#000000" p-id="1797"></path></svg>